<svg xmlns="http://www.w3.org/2000/svg" width="495" height="195" viewBox="0 0 495 195" fill="none">
  <style>
    .header { font: 600 18px 'Segoe UI', Ubuntu, Sans-Serif; fill: #70a5fd; }
    .stat { font: 600 14px 'Segoe UI', Ubuntu, Sans-Serif; fill: #7aa2f7; }
    .bold { font-weight: 700; fill: #2ac3de; }
    .icon { fill: #38bdf8; }
    .rank-text { font: 800 24px 'Segoe UI', Ubuntu, Sans-Serif; fill: #70a5fd; text-anchor: middle; }
    .rank-circle { stroke: #70a5fd; stroke-width: 4; fill: none; }
  </style>

  <rect width="495" height="195" rx="4.5" fill="#1a1b26"/>

  <text x="25" y="35" class="header">Shivam 's GitHub Stats</text>

  <!-- Stars -->
  <g transform="translate(25, 55)">
    <path class="icon" d="M8 0L10.35 5.26L16 5.82L11.72 9.57L13 15.14L8 12.22L3 15.14L4.28 9.57L0 5.82L5.65 5.26L8 0Z"/>
    <text x="25" y="13" class="stat">Total Stars Earned:</text>
    <text x="210" y="13" class="stat bold">38</text>
  </g>

  <!-- Commits -->
  <g transform="translate(25, 80)">
    <path class="icon" d="M1.5 8a6.5 6.5 0 0113 0 6.5 6.5 0 01-13 0zM8 0a8 8 0 100 16A8 8 0 008 0zm.5 4.75a.75.75 0 00-1.5 0v3.5c0 .2.08.39.22.53l2.25 2.25a.75.75 0 001.06-1.06L8.5 8.19V4.75z"/>
    <text x="25" y="13" class="stat">Total Commits (last year):</text>
    <text x="210" y="13" class="stat bold">724</text>
  </g>

  <!-- PRs -->
  <g transform="translate(25, 105)">
    <path class="icon" d="M7.177 3.073L9.573.677A.25.25 0 0110 .854v4.792a.25.25 0 01-.427.177L7.177 3.427a.25.25 0 010-.354zM3.75 2.5a.75.75 0 100 1.5.75.75 0 000-1.5zm-2.25.75a2.25 2.25 0 114.5 0 2.25 2.25 0 01-4.5 0zm0 9.5a2.25 2.25 0 114.5 0 2.25 2.25 0 01-4.5 0zM3.75 12a.75.75 0 100 1.5.75.75 0 000-1.5z"/>
    <text x="25" y="13" class="stat">Total PRs:</text>
    <text x="210" y="13" class="stat bold">48</text>
  </g>

  <!-- Issues -->
  <g transform="translate(25, 130)">
    <path class="icon" d="M8 1.5a6.5 6.5 0 100 13 6.5 6.5 0 000-13zM0 8a8 8 0 1116 0A8 8 0 010 8zm9 3a1 1 0 11-2 0 1 1 0 012 0zm-.25-6.25a.75.75 0 00-1.5 0v3.5a.75.75 0 001.5 0v-3.5z"/>
    <text x="25" y="13" class="stat">Total Issues:</text>
    <text x="210" y="13" class="stat bold">12</text>
  </g>

  <!-- Contributed to -->
  <g transform="translate(25, 155)">
    <path class="icon" d="M2 2.5A1.5 1.5 0 013.5 1h9A1.5 1.5 0 0114 2.5v11a1.5 1.5 0 01-1.5 1.5h-9A1.5 1.5 0 012 13.5v-11zM3.5 2a.5.5 0 00-.5.5v11a.5.5 0 00.5.5h9a.5.5 0 00.5-.5v-11a.5.5 0 00-.5-.5h-9z"/>
    <text x="25" y="13" class="stat">Contributed to (last year):</text>
    <text x="210" y="13" class="stat bold">15</text>
  </g>

  <!-- Rank Circle -->
  <g transform="translate(400, 105)">
    <circle cx="0" cy="0" r="40" class="rank-circle" />
    <text x="0" y="8" class="rank-text">A+</text>
  </g>
</svg>
